<?xml version="1.0" encoding="UTF-8" standalone="no"?>
<!-- Created with Inkscape (http://www.inkscape.org/) -->

<svg
   xmlns:dc="http://purl.org/dc/elements/1.1/"
   xmlns:cc="http://creativecommons.org/ns#"
   xmlns:rdf="http://www.w3.org/1999/02/22-rdf-syntax-ns#"
   xmlns:svg="http://www.w3.org/2000/svg"
   xmlns="http://www.w3.org/2000/svg"
   xmlns:sodipodi="http://sodipodi.sourceforge.net/DTD/sodipodi-0.dtd"
   xmlns:inkscape="http://www.inkscape.org/namespaces/inkscape"
   width="210mm"
   height="297mm"
   viewBox="0 0 744.09448819 1052.3622047"
   id="svg2"
   version="1.1"
   inkscape:version="0.91 r13725"
   sodipodi:docname="monolayer.svg">
  <defs
     id="defs4" />
  <sodipodi:namedview
     id="base"
     pagecolor="#ffffff"
     bordercolor="#666666"
     borderopacity="1.0"
     inkscape:pageopacity="0.0"
     inkscape:pageshadow="2"
     inkscape:zoom="1.8101934"
     inkscape:cx="335.49459"
     inkscape:cy="729.83023"
     inkscape:document-units="px"
     inkscape:current-layer="layer1"
     showgrid="true"
     inkscape:window-width="1440"
     inkscape:window-height="801"
     inkscape:window-x="223"
     inkscape:window-y="62"
     inkscape:window-maximized="0">
    <inkscape:grid
       type="xygrid"
       id="grid4210" />
  </sodipodi:namedview>
  <metadata
     id="metadata7">
    <rdf:RDF>
      <cc:Work
         rdf:about="">
        <dc:format>image/svg+xml</dc:format>
        <dc:type
           rdf:resource="http://purl.org/dc/dcmitype/StillImage" />
        <dc:title></dc:title>
      </cc:Work>
    </rdf:RDF>
  </metadata>
  <g
     inkscape:label="Layer 1"
     inkscape:groupmode="layer"
     id="layer1">
    <ellipse
       style="fill:#0173b2;fill-opacity:1;stroke:none;stroke-width:0.8237921;stroke-miterlimit:4;stroke-dasharray:none;stroke-opacity:1"
       id="path4208"
       cx="260.21692"
       cy="393.1041"
       rx="13.083675"
       ry="18.621435"
       inkscape:export-xdpi="600"
       inkscape:export-ydpi="600" />
    <path
       style="fill:none;fill-rule:evenodd;stroke:#029e73;stroke-width:3;stroke-linecap:butt;stroke-linejoin:miter;stroke-miterlimit:4;stroke-dasharray:none;stroke-opacity:1"
       d="m 215,408.3622 c 0,0 15,-10 30,0 15,10 30,0 30,0"
       id="path4216"
       inkscape:connector-curvature="0"
       inkscape:export-xdpi="600"
       inkscape:export-ydpi="600" />
    <path
       inkscape:connector-curvature="0"
       id="path4218"
       d="m 215,408.3622 c 0,0 15,-10 30,0 15,10 30,0 30,0"
       style="fill:none;fill-rule:evenodd;stroke:#029e73;stroke-width:3;stroke-linecap:butt;stroke-linejoin:miter;stroke-miterlimit:4;stroke-dasharray:none;stroke-opacity:1;fill-opacity:1"
       inkscape:export-xdpi="600"
       inkscape:export-ydpi="600" />
    <path
       style="fill:none;fill-rule:evenodd;stroke:#029e73;stroke-width:3;stroke-linecap:butt;stroke-linejoin:miter;stroke-miterlimit:4;stroke-dasharray:none;stroke-opacity:1;fill-opacity:1"
       d="m 275,408.3622 c 0,0 15,-10 30,0 15,10 30,0 30,0"
       id="path4220"
       inkscape:connector-curvature="0"
       inkscape:export-xdpi="600"
       inkscape:export-ydpi="600" />
    <path
       inkscape:connector-curvature="0"
       id="path4222"
       d="m 335,408.3622 c 0,0 15,-10 30,0 15,10 30,0 30,0"
       style="fill:none;fill-rule:evenodd;stroke:#029e73;stroke-width:3;stroke-linecap:butt;stroke-linejoin:miter;stroke-miterlimit:4;stroke-dasharray:none;stroke-opacity:1"
       inkscape:export-xdpi="600"
       inkscape:export-ydpi="600" />
    <path
       style="fill:none;fill-rule:evenodd;stroke:#029e73;stroke-width:3;stroke-linecap:butt;stroke-linejoin:miter;stroke-miterlimit:4;stroke-dasharray:none;stroke-opacity:1;fill-opacity:1"
       d="m 335,408.3622 c 0,0 15,-10 30,0 15,10 30,0 30,0"
       id="path4224"
       inkscape:connector-curvature="0"
       inkscape:export-xdpi="600"
       inkscape:export-ydpi="600" />
    <path
       inkscape:connector-curvature="0"
       id="path4226"
       d="m 395,408.3622 c 0,0 15,-10 30,0 15,10 30,0 30,0"
       style="fill:none;fill-rule:evenodd;stroke:#029e73;stroke-width:3;stroke-linecap:butt;stroke-linejoin:miter;stroke-miterlimit:4;stroke-dasharray:none;stroke-opacity:1;fill-opacity:1"
       inkscape:export-xdpi="600"
       inkscape:export-ydpi="600" />
    <ellipse
       ry="18.621435"
       rx="13.083675"
       cy="384.14746"
       cx="230.12958"
       id="ellipse4234"
       style="fill:#0173b2;fill-opacity:1;stroke:none;stroke-width:0.8237921;stroke-miterlimit:4;stroke-dasharray:none;stroke-opacity:1"
       inkscape:export-xdpi="600"
       inkscape:export-ydpi="600" />
    <ellipse
       ry="18.621435"
       rx="13.083675"
       cy="393.1041"
       cx="320.39166"
       id="ellipse4236"
       style="fill:#0173b2;fill-opacity:1;stroke:none;stroke-width:0.8237921;stroke-miterlimit:4;stroke-dasharray:none;stroke-opacity:1"
       inkscape:export-xdpi="600"
       inkscape:export-ydpi="600" />
    <ellipse
       style="fill:#0173b2;fill-opacity:1;stroke:none;stroke-width:0.8237921;stroke-miterlimit:4;stroke-dasharray:none;stroke-opacity:1"
       id="ellipse4238"
       cx="290.30432"
       cy="384.14746"
       rx="13.083675"
       ry="18.621435"
       inkscape:export-xdpi="600"
       inkscape:export-ydpi="600" />
    <ellipse
       ry="18.621435"
       rx="13.083675"
       cy="393.1041"
       cx="380.06668"
       id="ellipse4240"
       style="fill:#0173b2;fill-opacity:1;stroke:none;stroke-width:0.8237921;stroke-miterlimit:4;stroke-dasharray:none;stroke-opacity:1"
       inkscape:export-xdpi="600"
       inkscape:export-ydpi="600" />
    <ellipse
       style="fill:#0173b2;fill-opacity:1;stroke:none;stroke-width:0.8237921;stroke-miterlimit:4;stroke-dasharray:none;stroke-opacity:1"
       id="ellipse4242"
       cx="350.47903"
       cy="384.14746"
       rx="13.083675"
       ry="18.621435"
       inkscape:export-xdpi="600"
       inkscape:export-ydpi="600" />
    <ellipse
       style="fill:#0173b2;fill-opacity:1;stroke:none;stroke-width:0.8237921;stroke-miterlimit:4;stroke-dasharray:none;stroke-opacity:1"
       id="ellipse4244"
       cx="440.64069"
       cy="392.70377"
       rx="13.083675"
       ry="18.621435"
       inkscape:export-xdpi="600"
       inkscape:export-ydpi="600" />
    <ellipse
       ry="18.621435"
       rx="13.083675"
       cy="384.14746"
       cx="410.65378"
       id="ellipse4246"
       style="fill:#0173b2;fill-opacity:1;stroke:none;stroke-width:0.8237921;stroke-miterlimit:4;stroke-dasharray:none;stroke-opacity:1"
       inkscape:export-xdpi="600"
       inkscape:export-ydpi="600" />
    <ellipse
       style="fill:#de8f05;stroke:none;stroke-width:0.98164874;stroke-miterlimit:4;stroke-dasharray:none;stroke-opacity:1;fill-opacity:1"
       id="ellipse4248"
       cx="316.21078"
       cy="290.01932"
       rx="9.59585"
       ry="47.678047"
       transform="matrix(0.99301945,0.11795068,-0.24757726,0.96886815,0,0)"
       inkscape:export-xdpi="600"
       inkscape:export-ydpi="600" />
    <ellipse
       transform="matrix(0.99301945,0.11795068,-0.24757726,0.96886815,0,0)"
       ry="47.678047"
       rx="9.59585"
       cy="294.46353"
       cx="347.52985"
       id="ellipse4250"
       style="fill:#de8f05;stroke:none;stroke-width:0.98164874;stroke-miterlimit:4;stroke-dasharray:none;stroke-opacity:1;fill-opacity:1"
       inkscape:export-xdpi="600"
       inkscape:export-ydpi="600" />
    <ellipse
       transform="matrix(0.99301945,0.11795068,-0.24757726,0.96886815,0,0)"
       ry="47.678047"
       rx="9.59585"
       cy="282.88022"
       cx="374.85266"
       id="ellipse4252"
       style="fill:#de8f05;stroke:none;stroke-width:0.98164874;stroke-miterlimit:4;stroke-dasharray:none;stroke-opacity:1;fill-opacity:1"
       inkscape:export-xdpi="600"
       inkscape:export-ydpi="600" />
    <ellipse
       style="fill:#de8f05;stroke:none;stroke-width:0.98164874;stroke-miterlimit:4;stroke-dasharray:none;stroke-opacity:1;fill-opacity:1"
       id="ellipse4254"
       cx="406.17172"
       cy="287.32443"
       rx="9.59585"
       ry="47.678047"
       transform="matrix(0.99301945,0.11795068,-0.24757726,0.96886815,0,0)"
       inkscape:export-xdpi="600"
       inkscape:export-ydpi="600" />
    <ellipse
       transform="matrix(0.99301945,0.11795068,-0.24757726,0.96886815,0,0)"
       ry="47.678047"
       rx="9.59585"
       cy="275.74112"
       cx="433.49454"
       id="ellipse4256"
       style="fill:#de8f05;stroke:none;stroke-width:0.98164874;stroke-miterlimit:4;stroke-dasharray:none;stroke-opacity:1;fill-opacity:1"
       inkscape:export-xdpi="600"
       inkscape:export-ydpi="600" />
    <ellipse
       style="fill:#de8f05;stroke:none;stroke-width:0.98164874;stroke-miterlimit:4;stroke-dasharray:none;stroke-opacity:1;fill-opacity:1"
       id="ellipse4258"
       cx="464.8136"
       cy="280.18533"
       rx="9.59585"
       ry="47.678047"
       transform="matrix(0.99301945,0.11795068,-0.24757726,0.96886815,0,0)"
       inkscape:export-xdpi="600"
       inkscape:export-ydpi="600" />
    <ellipse
       style="fill:#de8f05;stroke:none;stroke-width:0.98164874;stroke-miterlimit:4;stroke-dasharray:none;stroke-opacity:1;fill-opacity:1"
       id="ellipse4260"
       cx="492.13641"
       cy="268.60202"
       rx="9.59585"
       ry="47.678047"
       transform="matrix(0.99301945,0.11795068,-0.24757726,0.96886815,0,0)"
       inkscape:export-xdpi="600"
       inkscape:export-ydpi="600" />
    <ellipse
       transform="matrix(0.99301945,0.11795068,-0.24757726,0.96886815,0,0)"
       ry="47.678047"
       rx="9.59585"
       cy="273.04623"
       cx="523.45551"
       id="ellipse4262"
       style="fill:#de8f05;stroke:none;stroke-width:0.98164874;stroke-miterlimit:4;stroke-dasharray:none;stroke-opacity:1;fill-opacity:1"
       inkscape:export-xdpi="600"
       inkscape:export-ydpi="600" />
    <path
       style="fill:none;fill-rule:evenodd;stroke:#029e73;stroke-width:3;stroke-linecap:butt;stroke-linejoin:miter;stroke-opacity:1;stroke-miterlimit:4;stroke-dasharray:none;fill-opacity:1"
       d="m 215,368.3622 c 0,0 15,-10 30,0 15,10 30,0 30,0"
       id="path4264"
       inkscape:connector-curvature="0"
       inkscape:export-xdpi="600"
       inkscape:export-ydpi="600" />
    <path
       inkscape:connector-curvature="0"
       id="path4266"
       d="m 275,368.3622 c 0,0 15,-10 30,0 15,10 30,0 30,0"
       style="fill:none;fill-rule:evenodd;stroke:#029e73;stroke-width:3;stroke-linecap:butt;stroke-linejoin:miter;stroke-opacity:1;stroke-miterlimit:4;stroke-dasharray:none;fill-opacity:1"
       inkscape:export-xdpi="600"
       inkscape:export-ydpi="600" />
    <path
       inkscape:connector-curvature="0"
       id="path4268"
       d="m 335,368.3622 c 0,0 15,-10 30,0 15,10 30,0 30,0"
       style="fill:none;fill-rule:evenodd;stroke:#029e73;stroke-width:3;stroke-linecap:butt;stroke-linejoin:miter;stroke-opacity:1;stroke-miterlimit:4;stroke-dasharray:none;fill-opacity:1"
       inkscape:export-xdpi="600"
       inkscape:export-ydpi="600" />
    <path
       style="fill:none;fill-rule:evenodd;stroke:#029e73;stroke-width:3;stroke-linecap:butt;stroke-linejoin:miter;stroke-opacity:1;stroke-miterlimit:4;stroke-dasharray:none;fill-opacity:1"
       d="m 395,368.3622 c 0,0 15,-10 30,0 15,10 30,0 30,0"
       id="path4270"
       inkscape:connector-curvature="0"
       inkscape:export-xdpi="600"
       inkscape:export-ydpi="600" />
    <path
       inkscape:connector-curvature="0"
       id="path4272"
       d="m 237.30035,274.3622 c 0,0 15,-10 30,0 15,10 30,0 30,0"
       style="fill:none;fill-rule:evenodd;stroke:#029e73;stroke-width:3;stroke-linecap:butt;stroke-linejoin:miter;stroke-opacity:1;stroke-miterlimit:4;stroke-dasharray:none"
       inkscape:export-xdpi="600"
       inkscape:export-ydpi="600" />
    <path
       style="fill:none;fill-rule:evenodd;stroke:#029e73;stroke-width:3;stroke-linecap:butt;stroke-linejoin:miter;stroke-opacity:1;stroke-miterlimit:4;stroke-dasharray:none"
       d="m 297.30035,274.3622 c 0,0 15,-10 30,0 15,10 30,0 30,0"
       id="path4274"
       inkscape:connector-curvature="0"
       inkscape:export-xdpi="600"
       inkscape:export-ydpi="600" />
    <path
       style="fill:none;fill-rule:evenodd;stroke:#029e73;stroke-width:3;stroke-linecap:butt;stroke-linejoin:miter;stroke-opacity:1;stroke-miterlimit:4;stroke-dasharray:none"
       d="m 357.30035,274.3622 c 0,0 15,-10 30,0 15,10 30,0 30,0"
       id="path4276"
       inkscape:connector-curvature="0"
       inkscape:export-xdpi="600"
       inkscape:export-ydpi="600" />
    <path
       inkscape:connector-curvature="0"
       id="path4278"
       d="m 417.30035,274.3622 c 0,0 15,-10 30,0 15,10 30,0 30,0"
       style="fill:none;fill-rule:evenodd;stroke:#029e73;stroke-width:3;stroke-linecap:butt;stroke-linejoin:miter;stroke-opacity:1;stroke-miterlimit:4;stroke-dasharray:none"
       inkscape:export-xdpi="600"
       inkscape:export-ydpi="600" />
    <path
       style="fill:none;fill-rule:evenodd;stroke:#029e73;stroke-width:3;stroke-linecap:butt;stroke-linejoin:miter;stroke-opacity:1;stroke-miterlimit:4;stroke-dasharray:none"
       d="m 177.30035,274.3622 c 0,0 15,-10 30,0 15,10 30,0 30,0"
       id="path4280"
       inkscape:connector-curvature="0"
       inkscape:export-xdpi="600"
       inkscape:export-ydpi="600" />
    <path
       style="fill:none;fill-rule:evenodd;stroke:#029e73;stroke-width:3;stroke-linecap:butt;stroke-linejoin:miter;stroke-opacity:1;stroke-miterlimit:4;stroke-dasharray:none"
       d="m 477.30035,274.3622 c 0,0 15,-10 30,0 15,10 30,0 30,0"
       id="path4282"
       inkscape:connector-curvature="0"
       inkscape:export-xdpi="600"
       inkscape:export-ydpi="600" />
    <path
       style="fill:none;fill-rule:evenodd;stroke:#029e73;stroke-width:3;stroke-linecap:butt;stroke-linejoin:miter;stroke-miterlimit:4;stroke-dasharray:none;stroke-opacity:1;fill-opacity:1"
       d="m 155,408.3622 c 0,0 15,-10 30,0 15,10 30,0 30,0"
       id="path4284"
       inkscape:connector-curvature="0"
       inkscape:export-xdpi="600"
       inkscape:export-ydpi="600" />
    <path
       inkscape:connector-curvature="0"
       id="path4286"
       d="m 155,368.3622 c 0,0 15,-10 30,0 15,10 30,0 30,0"
       style="fill:none;fill-rule:evenodd;stroke:#029e73;stroke-width:3;stroke-linecap:butt;stroke-linejoin:miter;stroke-opacity:1;stroke-miterlimit:4;stroke-dasharray:none;fill-opacity:1"
       inkscape:export-xdpi="600"
       inkscape:export-ydpi="600" />
    <path
       style="fill:none;fill-rule:evenodd;stroke:#029e73;stroke-width:3;stroke-linecap:butt;stroke-linejoin:miter;stroke-miterlimit:4;stroke-dasharray:none;stroke-opacity:1;fill-opacity:1"
       d="m 455,408.3622 c 0,0 15,-10 30,0 15,10 30,0 30,0"
       id="path4288"
       inkscape:connector-curvature="0"
       inkscape:export-xdpi="600"
       inkscape:export-ydpi="600" />
    <path
       inkscape:connector-curvature="0"
       id="path4290"
       d="m 455,368.3622 c 0,0 15,-10 30,0 15,10 30,0 30,0"
       style="fill:none;fill-rule:evenodd;stroke:#029e73;stroke-width:3;stroke-linecap:butt;stroke-linejoin:miter;stroke-opacity:1;stroke-miterlimit:4;stroke-dasharray:none;fill-opacity:1"
       inkscape:export-xdpi="600"
       inkscape:export-ydpi="600" />
  </g>
</svg>
